<svg width="85" height="37" viewBox="0 0 85 37" fill="none" xmlns="http://www.w3.org/2000/svg">
<g clip-path="url(#clip0_8202_59332)">
<g clip-path="url(#clip1_8202_59332)">
<path d="M74.5943 17.7962L74.5572 17.8334C74.8174 17.1272 75.3377 16.867 75.7837 16.867C76.4156 16.867 76.9731 17.3502 76.9731 18.0564C76.9731 18.2051 76.9731 18.3909 76.8988 18.6139C75.5979 21.9591 72.8474 23.6688 70.1713 23.929C68.9448 26.0104 66.9377 27.5343 64.0757 27.5343C59.9872 27.5343 58.166 24.3007 58.166 20.7697C58.166 16.421 60.9165 11.5891 65.5253 11.5891C66.5288 11.5891 67.3837 11.8122 68.0899 12.1095C70.1713 12.89 71.5094 15.6033 71.5094 18.5024C71.5094 19.4316 71.435 20.3608 71.212 21.2529C72.5873 20.7697 73.8881 19.6546 74.5943 17.7962ZM66.8262 14.6369V14.5998C66.0085 14.5998 65.5253 15.6776 65.5253 16.9785C65.5253 18.8741 66.566 20.621 68.2014 21.2529C68.4616 20.4352 68.5731 19.506 68.5731 18.4281C68.5731 16.3467 67.9412 14.6369 66.8262 14.6369ZM64.1129 24.821C65.1536 24.821 66.1943 24.375 67.012 23.4458C64.5961 22.3679 63.0722 19.8405 63.0722 17.4245C63.0722 16.6068 63.2209 15.752 63.4439 15.0086C61.9572 16.2352 61.1023 18.6511 61.1023 20.7697C61.1023 23.5201 62.4032 24.821 64.1129 24.821Z" fill="white"/>
<path d="M58.7399 17.7962L58.7027 17.8334C58.9629 17.1272 59.4089 16.8299 59.8549 16.8299C60.4868 16.8299 61.1186 17.3874 61.1186 18.0936C61.1186 18.2794 61.0815 18.4281 61.0071 18.6139C59.5576 22.1449 57.4018 26.2706 53.9452 28.6865L53.8709 29.4299C53.462 33.8901 51.1948 36.7148 48.3328 36.7148C46.177 36.7148 44.9133 35.2281 44.9133 33.4812C44.9133 30.3219 48.1469 29.1697 51.1576 27.237C51.2319 26.4564 51.2691 25.5644 51.3062 24.5608C49.8195 26.1962 48.2213 26.8653 46.8089 26.8653C43.9841 26.8653 41.6797 24.5608 41.6797 21.0299C41.6797 15.6033 45.2478 12.0352 49.2248 12.0352H49.262C51.9753 12.0352 54.8744 13.4847 54.8744 16.0865C54.8744 16.9414 54.5027 21.5874 54.2054 25.1927C56.2124 23.2971 57.885 20.2122 58.7399 17.7962ZM47.2177 24.1892C48.593 24.1892 50.4514 23.3343 51.6036 19.1343C51.7894 18.2051 51.9009 17.3874 51.8638 16.421C51.6408 15.4175 50.7859 14.8228 49.5593 14.8228C47.0319 14.8228 44.616 17.2387 44.616 20.9184C44.616 23.1485 45.6567 24.1892 47.2177 24.1892ZM48.6301 34.0016H48.6673C49.4478 34.0016 50.3027 33.4812 50.8602 30.1361C49.2248 31.1024 47.7009 32.0688 47.7009 33.221C47.7009 33.7042 48.0726 34.0016 48.6301 34.0016Z" fill="white"/>
<path d="M42.3321 17.7962L42.295 17.8334C42.5551 17.1272 43.0755 16.867 43.5215 16.867C44.1534 16.867 44.7109 17.3502 44.7109 18.0564C44.7109 18.2051 44.7109 18.3909 44.6366 18.6139C43.3357 21.9591 40.5852 23.6688 37.9091 23.929C36.6826 26.0104 34.6755 27.5343 31.8135 27.5343C27.725 27.5343 25.9038 24.3007 25.9038 20.7697C25.9038 16.421 28.6542 11.5891 33.2631 11.5891C34.2666 11.5891 35.1215 11.8122 35.8277 12.1095C37.9091 12.89 39.2472 15.6033 39.2472 18.5024C39.2472 19.4316 39.1728 20.3608 38.9498 21.2529C40.3251 20.7697 41.6259 19.6546 42.3321 17.7962ZM34.564 14.6369V14.5998C33.7463 14.5998 33.2631 15.6776 33.2631 16.9785C33.2631 18.8741 34.3038 20.621 35.9392 21.2529C36.1994 20.4352 36.3109 19.506 36.3109 18.4281C36.3109 16.3467 35.679 14.6369 34.564 14.6369ZM31.8507 24.821C32.8914 24.821 33.9321 24.375 34.7498 23.4458C32.3339 22.3679 30.81 19.8405 30.81 17.4245C30.81 16.6068 30.9587 15.752 31.1817 15.0086C29.695 16.2352 28.8401 18.6511 28.8401 20.7697C28.8401 23.5201 30.141 24.821 31.8507 24.821Z" fill="white"/>
<path d="M27.7928 16.6229C27.2724 16.6229 26.8264 16.8831 26.529 17.5893C25.5627 20.0424 23.5555 24.2053 21.5112 24.2053C20.224 24.2053 19.2279 23.9142 18.2213 23.62C17.1933 23.3196 16.1545 23.0159 14.7836 23.0159C14.3004 23.0159 13.6314 23.0903 12.9995 23.2018C14.9031 20.606 15.6142 17.4623 16.3033 11.52C15.0059 11.4374 13.9505 11.1977 13.1812 10.9556C12.3595 18.4921 11.4265 21.3657 8.01889 24.2053C7.57286 24.577 7.34985 25.0974 7.34985 25.6178C7.34985 26.4355 8.05607 27.1417 8.94812 27.1417C9.24547 27.1417 9.57998 27.0302 9.9145 26.8815C11.8101 26.0266 12.9624 25.8036 14.3748 25.8036C15.2729 25.8036 16.3477 26.0605 17.4984 26.3354C18.8238 26.6522 20.2499 26.993 21.6228 26.993C24.6334 26.993 26.6034 24.0567 28.7963 18.3698C28.9079 18.184 28.945 17.961 28.945 17.7751C28.945 17.0689 28.3875 16.6229 27.7928 16.6229Z" fill="white"/>
<path fill-rule="evenodd" clip-rule="evenodd" d="M13.3698 9.41747C14.0429 9.65244 15.0937 9.926 16.4561 10.0069L16.6791 10.0068C20.8792 10.0068 23.6297 7.405 23.6297 4.28281C23.6297 2.27569 22.0686 0.7146 19.8756 0.7146C16.9393 0.7146 14.895 2.72172 13.8543 6.69879C12.5534 5.99258 11.6613 4.72884 11.2153 3.13058C10.9923 2.35003 10.5091 1.86683 9.84003 1.86683C9.02232 1.86683 8.50195 2.49871 8.50195 3.35359C8.50195 5.88108 10.4719 8.29705 13.3711 9.41212L13.3698 9.41747ZM16.9021 7.29349C17.4596 4.72884 18.3517 3.50227 19.5411 3.50227C20.173 3.50227 20.5818 3.87396 20.5818 4.543C20.5818 5.76957 19.2809 7.21915 16.9021 7.29349Z" fill="white"/>
</g>
</g>
<defs>
<clipPath id="clip0_8202_59332">
<rect width="84" height="36" fill="white" transform="translate(0.683105 0.7146)"/>
</clipPath>
<clipPath id="clip1_8202_59332">
<rect width="70" height="36" fill="white" transform="translate(7.34985 0.7146)"/>
</clipPath>
</defs>
</svg>
