<?xml version="1.0" encoding="utf-8" ?>
<svg xmlns="http://www.w3.org/2000/svg" xmlns:xlink="http://www.w3.org/1999/xlink" width="1024" height="1024">
	<path fill="#000A21" transform="scale(2 2)" d="M399.973 117.009L399.581 116.746C400.528 110.33 399.262 88.132 397.27 83.2209L397.013 83.0796L395.994 84.4031C393.153 84.4473 395.026 84.0964 393.496 86.0249C391.266 88.834 381.385 91.0388 378.684 92.4917C369.348 97.5139 356.766 99.7383 346.664 103.051L346.227 102.754C344.746 106.655 346.362 122.244 345.38 123.418C345.195 122.003 345.309 120.603 345.38 119.182L345.394 103.057C345.412 92.1318 345.523 82.4876 353.73 74.1914C364.329 63.4779 381.61 63.9284 392.063 74.518C399.972 82.5296 399.978 90.9746 399.986 101.563L399.973 117.009Z"/>
	<path fill="#000A21" transform="scale(2 2)" d="M149.962 68.8911C150.406 69.9496 151.527 69.8338 152.052 70.8414C151.171 76.3547 145.06 78.8064 141.173 81.9555C135.779 86.3253 129.196 91.3128 124.192 95.6985C122.902 96.829 114.589 105.915 113.149 105.857C111.916 104.531 112.88 102.039 112.43 100.397C111.716 102.649 112.921 108.113 112.084 109.434C111.846 101.333 111.338 91.0659 114.541 83.5528C120.246 70.1684 136.333 62.871 149.962 68.8911Z"/>
	<path fill="#000A21" transform="scale(2 2)" d="M112.084 109.434C112.921 108.113 111.716 102.649 112.43 100.397C112.88 102.039 111.916 104.531 113.149 105.857C114.589 105.915 122.902 96.829 124.192 95.6985C129.196 91.3128 135.779 86.3253 141.173 81.9555C145.06 78.8064 151.171 76.3547 152.052 70.8414C151.527 69.8338 150.406 69.9496 149.962 68.8911C166.246 74.4753 168.221 88.5334 168.251 102.998L168.238 118.553L168.254 133.629C168.253 153.762 160.882 168.236 138.66 168.288C112.974 166.575 112.553 145.208 112.084 125.643C111.554 120.266 111.999 114.829 112.084 109.434Z"/>
	<path fill="#000A21" transform="scale(2 2)" d="M345.38 123.418C346.362 122.244 344.746 106.655 346.227 102.754L346.664 103.051C356.766 99.7383 369.348 97.5139 378.684 92.4917C381.385 91.0388 391.266 88.834 393.496 86.0249C395.026 84.0964 393.153 84.4473 395.994 84.4031L397.013 83.0796L397.27 83.2209C399.262 88.132 400.528 110.33 399.581 116.746L399.973 117.009L399.973 119.182L399.973 121.145L399.95 121.383C398.721 135.84 403.579 150.758 390.775 161.809C379.311 171.703 361.526 170.54 351.719 158.905C345.839 151.93 345.369 144.777 345.362 136.035L345.38 123.418Z"/>
	<path fill="#000A21" transform="scale(2 2)" d="M168.238 118.553L168.756 119.022C180.208 118.22 191.782 118.549 203.268 118.547L308.473 118.551C320.78 118.549 333.1 118.265 345.38 119.182C345.309 120.603 345.195 122.003 345.38 123.418L345.362 136.035C345.369 144.777 345.839 151.93 351.719 158.905C361.526 170.54 379.311 171.703 390.775 161.809C403.579 150.758 398.721 135.84 399.95 121.383L399.973 121.145C400.582 128.381 401.831 120.158 404.159 119.182C413.014 117.345 424.76 120.35 432.242 125.242C449.993 136.849 450.564 152.706 450.565 171.524L450.564 387.693C450.569 393.752 450.815 399.919 450.257 405.952C448.804 421.661 436.393 436.036 420.792 439.031C415.315 440.083 409.484 439.949 403.922 439.959L175.731 439.952C149.828 439.951 123.866 439.574 97.969 439.954C100.729 423.193 104.382 399.069 96.6254 383.202C87.7154 364.976 88.1952 359.901 103.273 345.527C122.393 327.3 133.693 295.105 123.805 269.639C120.195 260.341 114.044 252.655 115.592 242.053C118.835 219.839 145.839 214.21 141.759 173.422C141.434 170.169 142.218 168.739 138.66 168.288C160.882 168.236 168.253 153.762 168.254 133.629L168.238 118.553ZM246.503 184.503C238.055 185.998 238.958 194.285 238.975 200.998L239.005 214.753C230.046 214.759 220.898 215.171 211.964 214.753C212.097 201.071 209.572 199.875 196.095 200.05C183.171 200.218 183.842 204.573 183.787 215.539C172.543 215.839 168.236 226.711 161.914 234.926C158.755 239.032 154.647 243.024 152.269 247.619C146.881 258.034 155.443 266.294 165.287 268.562L165.287 367.736C145.321 368.417 147.261 391.692 161.844 394.263C164.933 394.808 168.236 394.604 171.367 394.596L184.764 394.557C193.468 394.541 209.378 397.245 215.546 389.675C223.685 379.686 216.182 367.478 202.095 367.736C202.245 354.939 200.314 320.965 202.817 309.964C206.921 291.931 233.893 291.972 237.75 310.024C239.013 315.935 238.368 324.868 238.368 331.123L238.358 367.736C222.939 368.711 215.103 382.022 226.02 391.44C231.164 395.877 238.883 394.581 245.119 394.565L266.254 394.575C272.677 394.618 281.535 395.953 286.558 391.06C291.827 385.928 291.927 376.832 286.692 371.631C283.059 368.023 278.978 368.009 274.235 367.736L274.237 331.249C274.23 321.205 272.151 309.73 279.927 301.873C286.962 294.767 299.046 295.145 305.988 302.168C313.358 309.623 311.198 322.177 311.196 331.661L311.185 367.736C287.073 369.261 292.28 392.179 305.983 394.329C308.902 394.787 312.012 394.607 314.96 394.598L328.552 394.554C337.794 394.546 354.42 397.399 360.67 388.843C369.253 377.092 358.536 368.5 346.248 367.736L346.248 266.539C350.815 266.093 354.797 265.397 357.965 261.675C366.74 251.364 355.987 240.744 350.085 232.283C343.612 223.004 340.458 213.993 327.508 214.753C327.574 211.331 328.384 205.707 325.933 203.039C322.192 198.965 306.13 198.684 302.24 202.281C299.182 205.109 299.989 210.917 300.023 214.753C290.761 214.656 281.5 214.763 272.239 214.753L272.255 200.197C272.285 180.508 264.38 183.785 246.503 184.503Z"/>
	<defs>
		<linearGradient id="gradient_0" gradientUnits="userSpaceOnUse" x1="167.7292" y1="318.77573" x2="14.934288" y2="229.52034">
			<stop offset="0" stop-color="#000A21"/>
			<stop offset="1" stop-color="#001016"/>
		</linearGradient>
	</defs>
	<path fill="url(#gradient_0)" transform="scale(2 2)" d="M112.084 125.643C112.553 145.208 112.974 166.575 138.66 168.288C142.218 168.739 141.434 170.169 141.759 173.422C145.839 214.21 118.835 219.839 115.592 242.053C114.044 252.655 120.195 260.341 123.805 269.639C133.693 295.105 122.393 327.3 103.273 345.527C88.1952 359.901 87.7154 364.976 96.6254 383.202C104.382 399.069 100.729 423.193 97.969 439.954C80.7508 434.943 68.6343 430.243 63.4304 410.137C61.3703 402.177 62.2062 391.637 62.2075 383.317L62.6274 204.698C62.5883 195.612 64.1911 173.648 62.5156 166.727C61.9551 164.412 63.5038 151.763 64.0247 149.046C67.5641 130.586 86.9482 118.132 105.051 118.78C113.934 119.098 111.451 127.466 111.574 135.393C112 132.177 111.556 128.903 112.084 125.643Z"/>
	<path fill="#001016" transform="scale(2 2)" d="M399.973 119.182C401.367 119.076 402.763 119.144 404.159 119.182C401.831 120.158 400.582 128.381 399.973 121.145L399.973 119.182Z"/>
	<path fill="#000A21" transform="scale(2 2)" d="M239.005 214.753L238.975 200.998C238.958 194.285 238.055 185.998 246.503 184.503C264.38 183.785 272.285 180.508 272.255 200.197L272.239 214.753C281.5 214.763 290.761 214.656 300.023 214.753C299.989 210.917 299.182 205.109 302.24 202.281C306.13 198.684 322.192 198.965 325.933 203.039C328.384 205.707 327.574 211.331 327.508 214.753C340.458 213.993 343.612 223.004 350.085 232.283C355.987 240.744 366.74 251.364 357.965 261.675C354.797 265.397 350.815 266.093 346.248 266.539L346.248 367.736C358.536 368.5 369.253 377.092 360.67 388.843C354.42 397.399 337.794 394.546 328.552 394.554L314.96 394.598C312.012 394.607 308.902 394.787 305.983 394.329C292.28 392.179 287.073 369.261 311.185 367.736L311.196 331.661C311.198 322.177 313.358 309.623 305.988 302.168C299.046 295.145 286.962 294.767 279.927 301.873C272.151 309.73 274.23 321.205 274.237 331.249L274.235 367.736C278.978 368.009 283.059 368.023 286.692 371.631C291.927 376.832 291.827 385.928 286.558 391.06C281.535 395.953 272.677 394.618 266.254 394.575L245.119 394.565C238.883 394.581 231.164 395.877 226.02 391.44C215.103 382.022 222.939 368.711 238.358 367.736L238.368 331.123C238.368 324.868 239.013 315.935 237.75 310.024C233.893 291.972 206.921 291.931 202.817 309.964C200.314 320.965 202.245 354.939 202.095 367.736C216.182 367.478 223.685 379.686 215.546 389.675C209.378 397.245 193.468 394.541 184.764 394.557L171.367 394.596C168.236 394.604 164.933 394.808 161.844 394.263C147.261 391.692 145.321 368.417 165.287 367.736L165.287 268.562C155.443 266.294 146.881 258.034 152.269 247.619C154.647 243.024 158.755 239.032 161.914 234.926C168.236 226.711 172.543 215.839 183.787 215.539C183.842 204.573 183.171 200.218 196.095 200.05C209.572 199.875 212.097 201.071 211.964 214.753C220.898 215.171 230.046 214.759 239.005 214.753Z"/>
</svg>
