<svg width="33" height="33" viewBox="0 0 33 33" fill="none" xmlns="http://www.w3.org/2000/svg">
<path d="M23.5187 23.0789L23.0473 23.5503C22.7869 23.8106 22.3649 23.8107 22.1045 23.5503L16.6833 18.1292L11.2622 23.5503C11.0019 23.8106 10.5797 23.8106 10.3194 23.5503L9.84803 23.0789C9.58767 22.8186 9.58767 22.3964 9.84795 22.1361L15.2691 16.715L9.84798 11.2938C9.58763 11.0335 9.58765 10.6113 9.848 10.351L10.3194 9.87961C10.5797 9.61926 11.0018 9.61924 11.2622 9.87959L16.6833 15.3007L22.1045 9.87958C22.3649 9.61923 22.787 9.61925 23.0473 9.87961L23.5187 10.351C23.779 10.6113 23.7791 11.0334 23.5187 11.2938L18.0976 16.715L23.5187 22.1361C23.7791 22.3965 23.779 22.8186 23.5187 23.0789Z" fill="black"/>
</svg>
