<svg width="81" height="81" viewBox="0 0 81 81" fill="none" xmlns="http://www.w3.org/2000/svg">
<path fill-rule="evenodd" clip-rule="evenodd" d="M69.7831 23.948L69.3164 23.1147C68.7144 22.107 67.8654 21.2694 66.8498 20.6813L44.4831 7.78135C43.4704 7.19385 42.3208 6.88341 41.1498 6.88135H40.1831C39.0121 6.88341 37.8624 7.19385 36.8498 7.78135L14.4831 20.7147C13.473 21.2989 12.634 22.1379 12.0498 23.148L11.5831 23.9813C10.9956 24.9941 10.6852 26.1438 10.6831 27.3147V53.148C10.6852 54.319 10.9956 55.4687 11.5831 56.4813L12.0498 57.3147C12.6491 58.313 13.4847 59.1487 14.4831 59.748L36.8831 72.648C37.8908 73.2477 39.0438 73.559 40.2164 73.548H41.1498C42.3208 73.546 43.4704 73.2357 44.4831 72.648L66.8498 59.7147C67.8698 59.1437 68.7121 58.3013 69.2831 57.2813L69.7831 56.448C70.3634 55.4323 70.6734 54.2847 70.6831 53.1147V27.2813C70.6811 26.1105 70.3707 24.9608 69.7831 23.948ZM40.1831 13.548H41.1498L60.6831 24.8147L40.6831 36.348L20.6831 24.8147L40.1831 13.548ZM44.0164 65.2147L63.5164 53.948L64.0164 53.1147V30.5813L44.0164 42.148V65.2147Z" fill="black"/>
</svg>
